<svg aria-hidden="true" style="position: absolute; width: 0; height: 0; overflow: hidden;" version="1.1" xmlns="http://www.w3.org/2000/svg" xmlns:xlink="http://www.w3.org/1999/xlink">
    <defs>
        <symbol id="icon-logoDunkin" viewBox="0 0 177 32">
            <path d="M89.921 4.462c0.102 0.559 0.102 1.119 0.102 1.678 0 6.866 0 13.783 0 20.649 0 2.136-0.763 3.814-2.747 4.679-2.136 0.915-4.17 0.559-5.9-1.017-1.068-0.966-1.882-2.187-2.797-3.357-2.39-3.052-4.984-6.001-7.019-9.358 0.051-0.051 0-0.051-0.051-0.102-0.102 0.153-0.051 0.356-0.051 0.509 0 2.696 0 5.34 0 7.985 0 0.763-0.102 1.475-0.305 2.187-0.661 2.289-2.594 3.662-4.984 3.509-2.95-0.203-4.628-1.984-4.832-5.086-0.051-0.305-0.051-0.61-0.051-0.916 0-6.866 0-13.732 0-20.598 0-2.136 0.814-3.814 2.848-4.679 2.085-0.865 4.069-0.559 5.798 1.017 0.916 0.814 1.577 1.933 2.34 2.95 2.289 3.102 4.73 6.154 6.866 9.409 0.203 0.356 0.407 0.661 0.763 0.966 0-0.153 0-0.356 0-0.509 0-2.848 0-5.696 0-8.544 0-1.17 0.204-2.34 0.814-3.357 1.119-1.882 2.848-2.492 4.883-2.289 2.39 0.203 4.018 1.831 4.323 4.272zM164.176 3.547c-0.509-1.729-1.627-2.95-3.458-3.306-1.933-0.356-3.713-0.102-5.086 1.526-0.916 1.119-1.221 2.441-1.221 3.815 0 2.899 0 5.849 0 8.748 0 0.203 0 0.356 0 0.712-0.355-0.61-0.61-1.017-0.915-1.475-2.645-3.865-5.493-7.527-8.291-11.291-0.355-0.458-0.814-0.865-1.322-1.221-1.78-1.17-3.611-1.272-5.493-0.407-1.678 0.814-2.543 2.238-2.543 4.069-0.051 7.222 0 14.495 0 21.717 0 0.153 0.051 0.356 0.051 0.509 0.203 2.899 1.932 4.73 4.781 4.933 1.983 0.153 3.814-0.865 4.679-2.594 0.355-0.763 0.61-1.526 0.61-2.34 0-2.95 0.051-5.798 0.051-8.697 0-0.153 0-0.356 0-0.559 0.051 0 0.051 0 0 0 0.305 0.509 0.56 0.966 0.916 1.424 2.594 3.713 5.544 7.12 8.29 10.681 0.204 0.254 0.509 0.559 0.764 0.763 1.729 1.424 3.712 1.678 5.747 0.814 1.983-0.865 2.746-2.543 2.746-4.628 0-6.866 0-13.783 0-20.7 0-0.814-0.051-1.678-0.305-2.492zM27.515 10.311c2.034 5.646 1.373 11.037-2.645 15.767-2.441 2.899-5.747 4.425-9.46 4.933-3.408 0.509-6.866 0.153-10.325 0.203-0.153 0-0.356-0.051-0.509-0.102-2.696-0.458-4.577-2.696-4.577-5.391 0-6.51 0-13.020 0-19.479 0-3.052 2.34-5.493 5.442-5.544 1.373 0 2.746 0 4.323 0 1.78 0.051 3.814-0.153 5.849 0.254 5.595 1.068 9.918 3.865 11.901 9.358zM18.411 16.008c0.051-2.848-1.831-5.086-4.679-5.442-1.068-0.153-2.085-0.051-3.153-0.102-0.407-0.051-0.509 0.102-0.509 0.509 0.051 1.678 0.051 3.357 0.051 5.035s0 3.357 0 5.035c0 0.254-0.051 0.458 0.356 0.458 1.068-0.051 2.136 0.051 3.204-0.102 2.797-0.356 4.679-2.441 4.73-5.391zM111.944 16.211c-0.255-0.305-0.255-0.458 0-0.763 1.78-2.034 3.56-4.069 5.289-6.154 0.865-1.068 1.424-2.238 1.526-3.611 0.203-3.001-2.645-5.747-5.646-5.442-1.729 0.153-2.95 1.119-3.967 2.441-1.78 2.34-3.662 4.577-5.493 6.917 0-1.526 0.051-3.052 0.051-4.527-0.102-2.95-2.187-4.933-5.035-4.984-2.899 0-5.035 2.034-5.086 4.984-0.051 7.273-0.051 14.546 0 21.819 0 2.899 2.136 4.984 5.035 4.984 2.848 0.051 4.933-2.034 5.035-4.984 0.102-1.475 0.051-2.899 0.051-4.374 0-0.153-0.102-0.305 0.101-0.407 0.102 0.153 0.153 0.254 0.254 0.356 1.933 2.492 3.967 4.883 5.951 7.324 0.712 0.865 1.526 1.475 2.594 1.78 3.051 0.916 6.409-1.678 6.51-4.984 0.051-1.577-0.509-2.848-1.526-4.018-1.882-2.085-3.764-4.272-5.645-6.358zM57.879 13.058c0-2.899 0-5.289-0.051-7.731 0-0.458 0-0.865-0.102-1.272-0.559-2.594-2.848-4.221-5.493-3.967-2.696 0.305-4.527 2.34-4.527 5.086 0 4.171 0 8.392 0 12.562 0 0.305 0 0.61-0.051 0.915-0.254 2.39-2.543 3.865-4.628 2.797-1.322-0.661-1.831-1.831-1.831-3.255 0-4.272 0-8.595 0-12.868 0-3.102-2.085-5.239-5.035-5.289-2.95 0-5.035 2.136-5.086 5.188-0.051 4.527 0 9.053 0 13.63 0.051 0.661 0.051 1.272 0.153 1.882 0.712 4.781 3.204 8.239 7.731 10.070 2.543 1.068 5.188 1.221 7.883 0.865 6.103-0.763 10.63-5.595 10.986-11.698 0.153-2.441 0-4.933 0.051-6.917zM130.762 1.36c-1.678-1.475-3.611-1.729-5.645-0.865-1.933 0.865-2.798 2.492-2.849 4.577-0.050 3.611 0 7.222 0 10.833 0 3.713 0 7.324-0.050 10.986 0 2.848 2.085 4.832 4.984 4.933 2.746 0.102 5.035-1.984 5.085-4.781 0.051-7.426 0.051-14.851 0-22.277 0-1.322-0.509-2.543-1.526-3.408z"></path>
            <path d="M167.635 7.412c-0.050-1.221 0-2.441 0.254-3.662 0.56-2.543 2.696-3.967 5.29-3.56 2.493 0.407 4.12 2.441 3.866 4.984-0.203 2.085-0.814 4.12-1.628 6.052-0.509 1.119-1.22 2.034-2.441 2.441-1.983 0.661-4.068-0.305-4.781-2.289-0.509-1.272-0.56-2.645-0.56-3.967z"></path>
        </symbol>
        <symbol id="icon-logoBerrbery" viewBox="0 0 235 32">
            <path d="M84.995 10.064c0-5.13-4.18-9.31-9.31-9.31h-15.517v30.401h6.903v-11.78h5.51l6.713 11.78h7.663l-7.283-12.73c3.293-1.52 5.32-4.813 5.32-8.36zM74.291 13.484h-7.283v-6.84h7.41c2.28 0.127 3.737 1.457 3.737 3.42-0.063 1.963-1.583 3.357-3.863 3.42zM48.008 0.817h7.093v18.304c0 7.98-4.94 12.794-13.237 12.794s-13.237-4.75-13.237-12.794v-18.304h7.093v17.86c0 4.307 2.28 6.777 6.143 6.777 3.927 0 6.207-2.47 6.207-6.777v-17.86h-0.063zM126.479 25.074h16.404v6.080h-23.434v-30.401h22.674v5.827h-15.58v6.080h13.681v5.953h-13.681v6.46h-0.063zM19.254 14.307c2.153-1.33 3.483-3.673 3.483-6.207 0-3.99-3.23-7.283-7.283-7.347h-15.454v30.401h16.784c4.75 0 8.55-3.863 8.55-8.614 0-3.357-1.963-6.84-6.080-8.233zM6.967 6.454h5.7c1.71 0 3.167 1.457 3.167 3.167 0 1.773-1.393 3.167-3.167 3.167h-5.7v-6.333zM14.757 25.454h-7.79v-7.093h7.727c2.533 0 3.737 2.027 3.737 3.483 0 1.837-1.267 3.61-3.673 3.61zM172.396 10.064c0-5.13-4.18-9.31-9.31-9.31h-15.516v30.401h6.903v-11.78h5.51l6.714 11.78h7.663l-7.284-12.73c3.23-1.52 5.32-4.813 5.32-8.36zM161.629 13.484h-7.283v-6.84h7.41c2.28 0.127 3.737 1.457 3.737 3.42s-1.584 3.357-3.864 3.42zM109.506 14.307c2.153-1.33 3.483-3.673 3.483-6.207 0-3.99-3.229-7.283-7.283-7.347h-15.454v30.401h16.784c4.75 0 8.55-3.863 8.55-8.614 0-3.357-2.027-6.84-6.080-8.233zM97.219 6.454h5.7c1.71 0 3.167 1.457 3.167 3.167 0 1.773-1.394 3.167-3.167 3.167h-5.7v-6.333zM104.945 25.454h-7.726v-7.093h7.726c2.534 0 3.737 2.027 3.737 3.483 0 1.837-1.267 3.61-3.737 3.61zM234.084 0.754l-12.097 17.987v12.35h-7.474v-12.35l-12.033-17.987h8.867l6.966 10.45 6.967-10.45h8.804zM202.417 10.064c0-5.13-4.18-9.31-9.31-9.31h-15.516v30.401h6.903v-11.78h5.51l6.714 11.78h7.726l-7.284-12.73c3.23-1.52 5.257-4.813 5.257-8.36zM191.651 13.484h-7.284v-6.84h7.41c2.28 0.127 3.737 1.457 3.737 3.42s-1.52 3.357-3.863 3.42z"></path>
        </symbol>
        <symbol id="icon-logoMiuMiu" viewBox="0 0 193 32">
            <path d="M42.603 12.417v16.378c0 1.231-1.124 2.141-2.194 2.141h-5.673c-1.124 0-2.034-0.91-2.034-2.141v-16.217c-0.482-2.89-2.194-3.532-4.228-3.372-0.642-1.82-1.285-3.372-2.355-4.87-2.194-2.141-1.873-1.392-2.516-2.141 0.161 0 1.285-0.91 2.837-1.392 1.231-0.321 3.586-0.482 5.192-0.321 4.228 0.589 5.673 1.659 6.904 2.623l1.284 1.231c2.944 3.158 2.783 6.851 2.783 8.082zM54.86 1.231h-5.513c-1.284 0-2.194 0.91-2.194 2.141v25.369c0 1.231 0.963 2.141 2.194 2.141h5.513c1.284 0 2.194-0.91 2.194-2.141v-25.369c0-1.231-0.963-2.141-2.194-2.141zM86.223 1.231h-5.673c-1.284 0-2.194 0.91-2.194 2.141v17.448c0 1.98-2.194 2.301-2.194 2.301v8.563h2.997c1.231-0.161 3.158-0.482 4.71-1.552 1.231-0.91 2.516-2.301 3.479-3.853 0.642-1.070 0.803-1.98 0.963-3.211v-19.749c-0.054-1.177-0.963-2.087-2.088-2.087zM71.665 21.141v-2.462l-0.161-14.986c0-1.231-0.963-2.141-2.034-2.141h-5.673c-1.231 0-2.194 0.91-2.194 2.141v19.749c0.161 1.231 0.321 2.141 1.070 3.211 0.963 1.392 2.034 2.89 3.479 3.693 1.552 1.070 3.318 1.552 4.549 1.552h2.997v-8.563c0-0.054-2.034-0.375-2.034-2.194zM13.541 0.482h-0.642c-7.065 0-12.738 5.673-12.738 12.256l-0.161 16.056c0 1.231 0.963 2.141 2.194 2.141h5.192c1.231 0 2.194-0.91 2.194-2.141v-16.217c0.321-1.231 2.194-2.783 3.746-2.783 1.392 0 3.158 1.552 3.64 2.783v16.056c0 1.231 0.963 2.141 2.034 2.141h5.352c1.124 0 2.034-0.91 2.034-2.141l0.161-15.628c0.053-6.744-5.78-12.524-13.006-12.524zM143.544 4.014l-1.123-1.231c-1.231-0.91-2.676-1.98-7.065-2.73-1.391-0.161-3.747 0.161-5.031 0.482-1.552 0.482-2.837 1.392-2.997 1.392 0.803 0.749 0.321 0 2.515 2.141 1.231 1.552 1.873 3.051 2.355 4.87 2.195-0.161 3.747 0.482 4.228 3.372v16.217c0 1.231 1.070 2.141 2.195 2.141h5.673c1.124 0 2.034-0.91 2.034-2.141l0.161-16.378c0.053-1.285 0.161-4.924-2.944-8.135zM158.744 0.963h-5.673c-1.123 0-2.034 0.91-2.034 2.141v25.369c0 1.231 0.963 2.141 2.034 2.141h5.673c1.124 0 2.034-0.91 2.034-2.141v-25.369c0-1.231-0.909-2.141-2.034-2.141zM190.001 0.963h-5.673c-1.070 0-2.034 0.91-2.034 2.141v15.147c0 0.16 0 0.91-0.16 2.301 0 1.98-2.035 2.301-2.035 2.301v8.563h2.998c1.23-0.161 2.997-0.589 4.549-1.552 1.391-0.91 2.676-2.301 3.586-3.8 0.643-1.070 0.803-1.98 0.963-3.211v-19.749c0-1.231-0.963-2.141-2.195-2.141zM175.39 20.82v-17.609c0-1.070-0.964-1.98-2.195-1.98h-5.513c-1.284 0-2.194 0.91-2.194 1.98v19.91c0.16 1.231 0.321 2.141 0.963 3.051 0.963 1.552 2.194 3.051 3.586 3.8 1.552 1.070 3.318 1.552 4.549 1.552h2.997v-8.563c0 0-2.034-0.321-2.194-2.141zM117.48 0l-0.643 0.161c-7.225 0-12.845 5.673-12.845 12.256v16.056c0 1.231 0.963 2.141 2.195 2.141h5.192c1.23 0 2.194-0.91 2.194-2.141l-0.16-15.896 0.16-0.321c0.322-1.231 2.195-2.73 3.587-2.73s3.318 1.392 3.586 2.73l0.161 0.161-0.161 15.896c0 1.231 0.963 2.141 2.195 2.141h5.192c1.284 0 2.195-0.91 2.195-2.141v-15.735c0-6.583-5.62-12.578-12.845-12.578z"></path>
        </symbol>
        <symbol id="icon-logoLux" viewBox="0 0 136 32">
            <path d="M58.146 0.727c-8.394 0-15.199 6.805-15.199 15.199s6.805 15.199 15.199 15.199c8.394 0 15.199-6.805 15.199-15.199 0.041-8.394-6.764-15.199-15.199-15.199zM58.146 25.582c-5.338 0-9.657-4.319-9.657-9.657s4.319-9.657 9.657-9.657 9.657 4.319 9.657 9.657c0 5.338-4.319 9.657-9.657 9.657zM96.979 6.268h-5.134v22.003c0 1.548-1.222 2.771-2.771 2.771s-2.771-1.222-2.771-2.771v-22.003h-3.993v22.003c0 1.548-1.222 2.771-2.771 2.771s-2.771-1.222-2.771-2.771v-22.003h-4.604c-1.548 0-2.771-1.222-2.771-2.771s1.222-2.771 2.771-2.771h24.774c1.549 0 2.771 1.222 2.771 2.771 0.041 1.508-1.222 2.771-2.729 2.771zM135.811 3.498v24.774c0 1.548-1.223 2.771-2.771 2.771s-2.771-1.222-2.771-2.771v-15.891l-11.898 17.073c-0.856 1.263-2.486 1.671-3.382 1.711-7.661 0-13.976-5.664-15.036-12.998v10.105c0 1.548-1.223 2.771-2.771 2.771s-2.771-1.222-2.771-2.771v-16.992c0-1.548 1.223-2.771 2.771-2.771s2.771 1.222 2.771 2.771v2.445c1.060-7.375 7.375-12.998 15.036-12.998 2.689 0 5.256 0.733 7.456 1.956 0.734 0.489 1.264 1.345 1.264 2.323 0 1.548-1.223 2.771-2.771 2.771-0.53 0-0.978-0.122-1.385-0.367-1.345-0.733-2.853-1.1-4.523-1.1-5.338 0-9.657 4.319-9.657 9.657 0 5.053 3.912 9.209 8.883 9.616l16.259-23.144c0.448-0.978 1.385-1.671 2.526-1.671 1.548-0.041 2.771 1.182 2.771 2.73zM45.8 26.52c0.978 1.182 0.774 2.934-0.407 3.912s-2.934 0.774-3.912-0.407l-7.986-9.902-7.987 9.902c-0.978 1.182-2.689 1.385-3.912 0.407-1.182-0.978-1.385-2.689-0.407-3.912l8.761-10.798-3.545-4.36v2.526c0 5.256-4.238 9.494-9.494 9.494s-9.494-4.238-9.494-9.494v-10.391c0-1.548 1.222-2.771 2.771-2.771s2.771 1.222 2.771 2.771v10.391c0 2.2 1.752 3.952 3.952 3.952s3.952-1.793 3.952-3.952v-10.391c0-1.548 1.222-2.771 2.771-2.771 0.978 0 1.834 0.53 2.323 1.304l7.538 9.29 7.701-9.494c0.978-1.182 2.689-1.385 3.912-0.407 1.182 0.978 1.385 2.689 0.408 3.912l-8.435 10.431 8.72 10.757zM19.681 28.19c0 1.548-1.222 2.771-2.771 2.771h-13.528c-0.204 0.041-0.407 0.081-0.611 0.081-1.548 0-2.771-1.222-2.771-2.771v-24.774c0-1.548 1.222-2.771 2.771-2.771s2.771 1.222 2.771 2.771v21.922h11.369c1.548 0 2.771 1.222 2.771 2.771z"></path>
        </symbol>
        <symbol id="icon-logo" viewBox="0 0 74 32">
            <path fill="#ffa638" style="fill: var(--color1, #ffa638)" d="M65.206 29.831c-0.817 0.947-2.476 0.805-2.749-0.58-0.13-0.687 0.059-1.516 0.356-2.096 0.664-1.267 1.86-2.309 3.223-2.652 0 0.782 0 1.812-0.024 2.605-0.024 0.876-0.213 2.025-0.806 2.724zM52.019 11.109c0.758 0.047 1.363 0.876 1.161 2.285-0.249 1.67-1.635 3.458-3.211 3.86-0.249-0.592-0.367-1.8-0.225-2.984 0.261-2.167 1.374-3.209 2.275-3.162zM22.482 19.185c-1.173-1.563-1.126-3.458-0.758-5.258 1.149 2.581 4.218 3.032 6.114 2.653-0.249 1.989-1.292 3.73-3.092 3.73-1.007 0.012-1.742-0.426-2.263-1.125zM26.629 11.89c0.578 0.59 0.968 1.45 1.147 2.404 0.001-0 0.003 0.012 0.003 0.012-0.001-0.004-0.002-0.008-0.003-0.012-1.326 0.189-2.605-0.060-3.54-0.782-0.675-0.533-0.853-1.374-0.569-1.883 0.414-0.734 1.659-1.054 2.962 0.26zM8.572 2.18c0.817-0.959 2.476-0.805 2.737 0.58 0.13 0.675-0.048 1.504-0.344 2.084-0.664 1.267-1.86 2.309-3.223 2.664 0-0.793-0.012-1.812 0.024-2.605 0.024-0.876 0.213-2.037 0.806-2.724zM69.056 22.714c0.012-4.121 0-8.242 0-12.363 0-1.018-2.926-1.078-3.021-0.047 0 0.414 0 0.841-0.012 1.255-0.047 2.262-1.125 6.489-2.914 8.029-0.486 0.415-0.924 0.438-1.232 0.213-0.273-0.201-0.344-0.71-0.344-1.148v-0.568c0-2.546 0.012-5.175 0-7.721 0-1.018-2.926-1.089-3.021-0.059 0 2.368 0 4.666 0.012 7.010-1.931 3.079-6.398 4.524-8.246 0.876 1.149 0.438 2.37 0.225 3.199-0.213 1.434-0.758 2.524-2.013 2.737-4.002 0.201-5.826-7.5-6.619-9.218-0.687-0.284 0.983-0.438 2.037-0.403 3.067 0.035 0.983 0.237 1.895 0.58 2.7-0.628 0.616-1.351 1.042-2.073 1.018-0.948-0.036-0.853-1.208-0.853-1.883v-4.441c0-0.533 0-1.066-0.048-1.587-0.154-1.551-1.339-2.783-2.997-2.89-2.358-0.035-4.017 2.155-4.834 4.559-0.012-1.338 0-2.132 0-3.482-0.012-1.007-2.725-1.078-3.033-0.012-0.391 1.35-1.671 2.404-2.867 3.031-0.367-0.888-0.829-1.705-1.469-2.404-2.63-2.854-6.434-2.333-8.661 0.023-1.765 1.871-2.298 5.246-1.35 7.614-0.699 0.829-1.659 1.504-2.512 1.468-0.427-0.024-0.664-0.272-0.77-0.663-0.107-0.379-0.083-0.829-0.083-1.22 0-1.48-0.012-2.96 0-4.441 0-0.533 0-1.066-0.047-1.587-0.154-1.551-1.066-2.795-2.796-2.901-2.974-0.131-4.171 2.747-5.048 5.115v-5.056c0.628-0.107 1.232-0.261 1.837-0.438 6.552-1.883 5.284-8.763 0.403-8.881-3.294-0.071-5.249 2.096-5.225 5.388v2.131c-1.185-0.178-2.074-1.717-2.571-2.712-0.071-0.154-0.142-0.308-0.213-0.462-0.059-0.154-0.225-0.237-0.379-0.189-0.13 0.035-0.26 0.083-0.391 0.13-0.474 0.213-0.865 0.58-1.054 1.066-0.344 0.864 0 1.788 0.604 2.439 0.995 1.042 2.583 1.421 3.981 1.492-0.012 4.109 0 8.206 0 12.315 0.047 0.58 0.841 0.734 1.303 0.746 0.486 0.012 1.54-0.142 1.552-0.805l0.035-0.509c0.201-1.824 1.955-9.118 4.17-9.13 0.545 0 0.818 0.355 0.818 0.888v6.501c0 2.013 1.137 3.363 3.199 3.363 1.6 0.012 3.045-1.149 3.91-2.593 0.118 0.154 0.213 0.32 0.344 0.462 1.126 1.314 2.784 2.155 4.68 2.167 4.135-0.059 6.256-3.612 6.102-7.105 0.96-0.533 1.825-1.22 2.488-2.072v8.088c0.048 0.58 0.877 0.734 1.339 0.746 0.486 0.012 1.54-0.142 1.54-0.805l0.047-0.509 0.142-1.35c0.214-1.883 1.623-7.768 4.028-7.78 0.533 0 0.806 0.355 0.806 0.888v6.501c0 2.013 1.137 3.363 3.21 3.363 1.434 0.012 2.737-0.924 3.614-2.155 1.161 1.433 2.938 2.274 5.071 2.274 2.5 0 4.313-1.101 5.521-2.878 0.272 1.528 1.090 2.735 3.092 2.759 2.073 0.012 3.649-2.877 4.301-4.618v4.654c-0.616 0.106-1.22 0.26-1.824 0.438-6.552 1.871-5.296 8.763-0.415 8.869 3.306 0.083 5.249-2.084 5.237-5.376 0-0.556-0.012-1.599 0-2.143 1.173 0.178 2.073 1.729 2.559 2.724 0.083 0.154 0.154 0.308 0.213 0.462 0.071 0.154 0.225 0.225 0.391 0.189 0.13-0.035 0.261-0.083 0.379-0.142 0.486-0.213 0.877-0.568 1.066-1.066 0.344-0.864 0-1.776-0.616-2.428-0.983-1.054-2.583-1.421-3.969-1.504z"></path>
        </symbol>
        </defs>
</svg>
